<mxfile host="app.diagrams.net" modified="2023-02-23T13:31:54.319Z" agent="5.0 (Windows NT 10.0; Win64; x64) AppleWebKit/537.36 (KHTML, like Gecko) Chrome/110.0.0.0 Safari/537.36" etag="osQrbCDM24opR6V6wNNq" version="20.8.20" type="github">
  <diagram name="第 1 页" id="UgOHJ0Ae31ULDd3tCeDl">
    <mxGraphModel dx="792" dy="2323" grid="1" gridSize="10" guides="1" tooltips="1" connect="1" arrows="1" fold="1" page="1" pageScale="1" pageWidth="827" pageHeight="1169" math="0" shadow="0">
      <root>
        <mxCell id="0" />
        <mxCell id="1" parent="0" />
        <mxCell id="_vbUXlonFtGnPLeFI3VS-1" value="Store" style="rounded=1;whiteSpace=wrap;html=1;" vertex="1" parent="1">
          <mxGeometry x="80" y="-30" width="120" height="60" as="geometry" />
        </mxCell>
        <mxCell id="_vbUXlonFtGnPLeFI3VS-3" value="Mutation" style="rounded=1;whiteSpace=wrap;html=1;" vertex="1" parent="1">
          <mxGeometry x="240" y="400" width="120" height="60" as="geometry" />
        </mxCell>
        <mxCell id="_vbUXlonFtGnPLeFI3VS-4" value="Action" style="rounded=1;whiteSpace=wrap;html=1;" vertex="1" parent="1">
          <mxGeometry x="240" y="560" width="120" height="60" as="geometry" />
        </mxCell>
        <mxCell id="_vbUXlonFtGnPLeFI3VS-5" value="Module" style="rounded=1;whiteSpace=wrap;html=1;" vertex="1" parent="1">
          <mxGeometry x="270" y="680" width="120" height="60" as="geometry" />
        </mxCell>
        <mxCell id="_vbUXlonFtGnPLeFI3VS-6" value="ModuleCollection" style="rounded=1;whiteSpace=wrap;html=1;" vertex="1" parent="1">
          <mxGeometry x="460" y="680" width="120" height="60" as="geometry" />
        </mxCell>
        <mxCell id="_vbUXlonFtGnPLeFI3VS-8" value="" style="endArrow=classic;html=1;rounded=0;exitX=0.5;exitY=0;exitDx=0;exitDy=0;entryX=0;entryY=0.5;entryDx=0;entryDy=0;" edge="1" parent="1" source="_vbUXlonFtGnPLeFI3VS-3" target="_vbUXlonFtGnPLeFI3VS-2">
          <mxGeometry width="50" height="50" relative="1" as="geometry">
            <mxPoint x="380" y="610" as="sourcePoint" />
            <mxPoint x="430" y="560" as="targetPoint" />
            <Array as="points">
              <mxPoint x="300" y="340" />
            </Array>
          </mxGeometry>
        </mxCell>
        <mxCell id="_vbUXlonFtGnPLeFI3VS-12" value="change" style="edgeLabel;html=1;align=center;verticalAlign=middle;resizable=0;points=[];" vertex="1" connectable="0" parent="_vbUXlonFtGnPLeFI3VS-8">
          <mxGeometry x="-0.0297" y="-3" relative="1" as="geometry">
            <mxPoint x="-20" y="17" as="offset" />
          </mxGeometry>
        </mxCell>
        <mxCell id="_vbUXlonFtGnPLeFI3VS-10" value="" style="endArrow=classic;html=1;rounded=0;exitX=0;exitY=0.5;exitDx=0;exitDy=0;entryX=1;entryY=0.5;entryDx=0;entryDy=0;" edge="1" parent="1" source="_vbUXlonFtGnPLeFI3VS-9" target="_vbUXlonFtGnPLeFI3VS-3">
          <mxGeometry width="50" height="50" relative="1" as="geometry">
            <mxPoint x="310" y="410" as="sourcePoint" />
            <mxPoint x="430" y="330" as="targetPoint" />
          </mxGeometry>
        </mxCell>
        <mxCell id="_vbUXlonFtGnPLeFI3VS-11" value="Call" style="edgeLabel;html=1;align=center;verticalAlign=middle;resizable=0;points=[];" vertex="1" connectable="0" parent="_vbUXlonFtGnPLeFI3VS-10">
          <mxGeometry x="-0.1778" y="2" relative="1" as="geometry">
            <mxPoint x="-11" y="-2" as="offset" />
          </mxGeometry>
        </mxCell>
        <mxCell id="_vbUXlonFtGnPLeFI3VS-14" style="edgeStyle=orthogonalEdgeStyle;rounded=0;orthogonalLoop=1;jettySize=auto;html=1;exitX=0;exitY=0.5;exitDx=0;exitDy=0;entryX=0;entryY=0.5;entryDx=0;entryDy=0;" edge="1" parent="1" source="_vbUXlonFtGnPLeFI3VS-13" target="_vbUXlonFtGnPLeFI3VS-3">
          <mxGeometry relative="1" as="geometry" />
        </mxCell>
        <mxCell id="_vbUXlonFtGnPLeFI3VS-15" value="options.mutation" style="edgeLabel;html=1;align=center;verticalAlign=middle;resizable=0;points=[];" vertex="1" connectable="0" parent="_vbUXlonFtGnPLeFI3VS-14">
          <mxGeometry x="-0.1433" relative="1" as="geometry">
            <mxPoint x="10" y="21" as="offset" />
          </mxGeometry>
        </mxCell>
        <mxCell id="_vbUXlonFtGnPLeFI3VS-13" value="Options" style="rounded=1;whiteSpace=wrap;html=1;" vertex="1" parent="1">
          <mxGeometry x="240" y="140" width="120" height="60" as="geometry" />
        </mxCell>
        <mxCell id="_vbUXlonFtGnPLeFI3VS-17" style="edgeStyle=orthogonalEdgeStyle;rounded=0;orthogonalLoop=1;jettySize=auto;html=1;" edge="1" parent="1" source="_vbUXlonFtGnPLeFI3VS-16" target="_vbUXlonFtGnPLeFI3VS-9">
          <mxGeometry relative="1" as="geometry">
            <Array as="points">
              <mxPoint x="650" y="430" />
              <mxPoint x="650" y="430" />
            </Array>
          </mxGeometry>
        </mxCell>
        <mxCell id="_vbUXlonFtGnPLeFI3VS-20" value="Call" style="edgeLabel;html=1;align=center;verticalAlign=middle;resizable=0;points=[];" vertex="1" connectable="0" parent="_vbUXlonFtGnPLeFI3VS-17">
          <mxGeometry x="-0.2148" y="2" relative="1" as="geometry">
            <mxPoint x="-5" y="-2" as="offset" />
          </mxGeometry>
        </mxCell>
        <mxCell id="_vbUXlonFtGnPLeFI3VS-16" value="Data Change" style="ellipse;whiteSpace=wrap;html=1;aspect=fixed;" vertex="1" parent="1">
          <mxGeometry x="800" y="390" width="80" height="80" as="geometry" />
        </mxCell>
        <mxCell id="_vbUXlonFtGnPLeFI3VS-28" style="edgeStyle=orthogonalEdgeStyle;rounded=0;orthogonalLoop=1;jettySize=auto;html=1;" edge="1" parent="1" source="_vbUXlonFtGnPLeFI3VS-21" target="_vbUXlonFtGnPLeFI3VS-4">
          <mxGeometry relative="1" as="geometry" />
        </mxCell>
        <mxCell id="_vbUXlonFtGnPLeFI3VS-29" value="Call" style="edgeLabel;html=1;align=center;verticalAlign=middle;resizable=0;points=[];" vertex="1" connectable="0" parent="_vbUXlonFtGnPLeFI3VS-28">
          <mxGeometry x="-0.1778" y="-2" relative="1" as="geometry">
            <mxPoint as="offset" />
          </mxGeometry>
        </mxCell>
        <mxCell id="_vbUXlonFtGnPLeFI3VS-23" value="" style="endArrow=classic;html=1;rounded=0;exitX=0;exitY=0.5;exitDx=0;exitDy=0;entryX=0;entryY=0.5;entryDx=0;entryDy=0;" edge="1" parent="1" source="_vbUXlonFtGnPLeFI3VS-13" target="_vbUXlonFtGnPLeFI3VS-4">
          <mxGeometry width="50" height="50" relative="1" as="geometry">
            <mxPoint x="170" y="170" as="sourcePoint" />
            <mxPoint x="170" y="590" as="targetPoint" />
            <Array as="points">
              <mxPoint x="180" y="170" />
              <mxPoint x="180" y="590" />
            </Array>
          </mxGeometry>
        </mxCell>
        <mxCell id="_vbUXlonFtGnPLeFI3VS-24" value="options.action" style="edgeLabel;html=1;align=center;verticalAlign=middle;resizable=0;points=[];" vertex="1" connectable="0" parent="_vbUXlonFtGnPLeFI3VS-23">
          <mxGeometry x="-0.1773" y="-1" relative="1" as="geometry">
            <mxPoint as="offset" />
          </mxGeometry>
        </mxCell>
        <mxCell id="_vbUXlonFtGnPLeFI3VS-26" style="edgeStyle=orthogonalEdgeStyle;rounded=0;orthogonalLoop=1;jettySize=auto;html=1;entryX=1;entryY=0.5;entryDx=0;entryDy=0;" edge="1" parent="1" source="_vbUXlonFtGnPLeFI3VS-25" target="_vbUXlonFtGnPLeFI3VS-21">
          <mxGeometry relative="1" as="geometry">
            <Array as="points">
              <mxPoint x="650" y="590" />
              <mxPoint x="650" y="590" />
            </Array>
          </mxGeometry>
        </mxCell>
        <mxCell id="_vbUXlonFtGnPLeFI3VS-27" value="Call" style="edgeLabel;html=1;align=center;verticalAlign=middle;resizable=0;points=[];" vertex="1" connectable="0" parent="_vbUXlonFtGnPLeFI3VS-26">
          <mxGeometry x="-0.2148" y="-1" relative="1" as="geometry">
            <mxPoint as="offset" />
          </mxGeometry>
        </mxCell>
        <mxCell id="_vbUXlonFtGnPLeFI3VS-25" value="Async Data Change" style="ellipse;whiteSpace=wrap;html=1;aspect=fixed;" vertex="1" parent="1">
          <mxGeometry x="800" y="550" width="80" height="80" as="geometry" />
        </mxCell>
        <mxCell id="_vbUXlonFtGnPLeFI3VS-34" value="" style="endArrow=classic;html=1;rounded=0;exitX=0.5;exitY=0;exitDx=0;exitDy=0;entryX=0.5;entryY=1;entryDx=0;entryDy=0;" edge="1" parent="1" source="_vbUXlonFtGnPLeFI3VS-4" target="_vbUXlonFtGnPLeFI3VS-9">
          <mxGeometry width="50" height="50" relative="1" as="geometry">
            <mxPoint x="400" y="460" as="sourcePoint" />
            <mxPoint x="450" y="410" as="targetPoint" />
            <Array as="points">
              <mxPoint x="300" y="510" />
              <mxPoint x="610" y="510" />
            </Array>
          </mxGeometry>
        </mxCell>
        <mxCell id="_vbUXlonFtGnPLeFI3VS-35" value="Call" style="edgeLabel;html=1;align=center;verticalAlign=middle;resizable=0;points=[];" vertex="1" connectable="0" parent="_vbUXlonFtGnPLeFI3VS-34">
          <mxGeometry x="0.0667" y="-2" relative="1" as="geometry">
            <mxPoint as="offset" />
          </mxGeometry>
        </mxCell>
        <mxCell id="_vbUXlonFtGnPLeFI3VS-37" value="Data" style="swimlane;whiteSpace=wrap;html=1;labelBackgroundColor=none;strokeColor=#36393d;fillColor=#ffcccc;" vertex="1" parent="1">
          <mxGeometry x="140" y="220" width="650" height="420" as="geometry" />
        </mxCell>
        <mxCell id="_vbUXlonFtGnPLeFI3VS-9" value="store.commit" style="rounded=1;whiteSpace=wrap;html=1;" vertex="1" parent="_vbUXlonFtGnPLeFI3VS-37">
          <mxGeometry x="410" y="180" width="120" height="60" as="geometry" />
        </mxCell>
        <mxCell id="_vbUXlonFtGnPLeFI3VS-21" value="Store.dispatch" style="rounded=1;whiteSpace=wrap;html=1;" vertex="1" parent="_vbUXlonFtGnPLeFI3VS-37">
          <mxGeometry x="410" y="340" width="120" height="60" as="geometry" />
        </mxCell>
        <mxCell id="_vbUXlonFtGnPLeFI3VS-2" value="State" style="rounded=1;whiteSpace=wrap;html=1;" vertex="1" parent="_vbUXlonFtGnPLeFI3VS-37">
          <mxGeometry x="265" y="90" width="120" height="60" as="geometry" />
        </mxCell>
      </root>
    </mxGraphModel>
  </diagram>
</mxfile>
